<?xml version="1.0" encoding="utf-8"?>
<!-- Generator: Adobe Illustrator 24.0.0, SVG Export Plug-In . SVG Version: 6.00 Build 0)  -->
<svg version="1.1" id="Livello_1" xmlns="http://www.w3.org/2000/svg" xmlns:xlink="http://www.w3.org/1999/xlink" x="0px" y="0px"
	 viewBox="0 0 1975.2 500" style="enable-background:new 0 0 1975.2 500;" xml:space="preserve">
<style type="text/css">
	.st0{fill:#0058BD;}
	.st1{fill:#248AFF;}
	.st2{fill:#56A5FF;}
	.st3{fill:#FFFFFF;}
	.st4{font-family:'RobotoCondensed-Bold';}
	.st5{font-size:356.8239px;}
	.st6{font-size:92.7381px;}
</style>
<g>
	<path class="st0" d="M207.1,96.1l26.1-88.2c2.2-7.5,12.8-7.5,15,0l26.5,88.2C274.7,96.1,238,117.2,207.1,96.1z"/>
	<g>
		<path class="st0" d="M402.8,224.3l90.7,15.4c7.7,1.3,9,11.8,1.8,14.9l-84.5,36.8C410.8,291.4,385.5,257.4,402.8,224.3z"/>
		<path class="st0" d="M115.1,175.7L74.5,93.1c-3.4-7,4.3-14.2,11-10.2l79.2,47C164.8,129.9,152.1,170.3,115.1,175.7z"/>
		<path class="st0" d="M277.3,402.9l-22,89.3c-1.9,7.6-12.4,8.1-15,0.7L209.8,406C209.8,406,245.5,383.3,277.3,402.9z"/>
		<path class="st0" d="M168,410l-82.5,40.7c-7,3.4-14.2-4.3-10.2-11l46.9-79.3C122.2,360.4,162.6,373.1,168,410z"/>
		<path class="st1" d="M395.9,321.8l57.2,72c4.9,6.1-1.2,14.8-8.6,12.3l-87.4-29C357.1,377.1,361,334.9,395.9,321.8z"/>
		<path class="st1" d="M422.5,256.5c0,77.4-49.1,143.3-117.9,168.3c-7.7,2.8-15.7,5.1-23.9,6.8c-12,2.5-24.4,3.9-37.2,3.9
			c-74.4,0-138.2-45.4-165.2-109.9c-0.7-1.6-1.4-3.3-2-4.9c-0.9-2.3-1.7-4.7-2.6-7.1c-0.7-2.1-1.3-4.1-2-6.2
			c-1.3-4.5-2.5-9.1-3.5-13.8c-1.6-7.4-2.7-15-3.3-22.7c-0.4-4.7-0.6-9.5-0.6-14.3c0-98.9,80.1-179,179-179
			c63.3,0,119,32.9,150.8,82.5c4.8,7.5,9.1,15.4,12.7,23.6C417,205.9,422.5,230.6,422.5,256.5z"/>
		<g>
			<path class="st1" d="M340.4,370.2l25.7,88.3c2.2,7.5-6.7,13.2-12.6,8.1l-69.9-60C283.5,406.7,303,369.2,340.4,370.2z"/>
			<path class="st0" d="M304.6,424.8c-7.7,2.8-15.7,5.1-23.9,6.8l2.8-24.9L304.6,424.8z"/>
		</g>
		<g>
			<path class="st0" d="M407,183.6l-27.7,16.8l14.9-40.4C399.1,167.5,403.4,175.4,407,183.6z"/>
			<path class="st1" d="M334.8,149.7l83.5-38.6c7.1-3.3,14.1,4.7,9.9,11.3l-48.9,78.1C379.4,200.5,339.3,186.8,334.8,149.7z"/>
		</g>
		<g>
			<path class="st0" d="M111.6,323.6l-33.3,2c-0.7-1.6-1.4-3.3-2-4.9c-0.9-2.3-2.1-5.6-2.9-8l-18.8-5c-0.8-3-1.3-5.1-1.9-8.1l19,7.8
				L111.6,323.6z"/>
			<path class="st1" d="M114.8,323.6l-37.8-10l-18.9-5l-32.2-8.5c-7.5-2-7.9-12.6-0.5-15l42.8-14.2l44.6-14.8
				C112.8,256.1,135,292.1,114.8,323.6z"/>
			<path class="st1" d="M73.3,220l-29.8-25.3l-14.9-12.6L3.2,160.5c-5.9-5-1.7-14.7,6.1-13.8l44.8,5.6l46.6,5.9
				C100.7,158.2,105.1,200.3,73.3,220z"/>
		</g>
		<circle class="st2" cx="241.5" cy="250.7" r="117.4"/>
		<path class="st1" d="M258.2,166.8c-5.9-15.8-27.4-20.2-48.4-16.2c-18.8,3.5-35.1,13.9-52,37.2c-28.7,39.9-28,114.9,21.5,134.1
			c49.5,19.2,58.9-33.6,28.1-58.4c-30.8-24.8-8.7-70.4,33.5-75.7C259.7,185.5,261.7,176.3,258.2,166.8z"/>
		<path class="st1" d="M275,216.9c-7.7-5-16.4-8.3-25.5-9.4c-12.8-1.5-28.4,1.1-31.4,21.2c-4.6,31,45.7,25.8,51.9,54.7
			c7.3,34,54.8,35.2,58,4.3C331.2,255,292.1,228,275,216.9z"/>
		<path class="st1" d="M279.5,314.7c-11.5-8.6-27.2-9.4-38.9-1.2c-6.9,4.9-12.3,12.7-10.1,25.1c5.1,29.3,57.2,9.5,58.8-7
			C289.9,324.6,285.2,319,279.5,314.7z"/>
		<path class="st1" d="M299.2,165.1c-6-2.8-12.8-3.4-19.1-1.4c-7.4,2.4-15,8.6-12,24c5.4,28.1,49.6,13.4,49.6-2.1
			C317.8,175.5,306.8,168.6,299.2,165.1z"/>
		<path class="st1" d="M314.1,237.9c3.5,3.9,8.3,6.4,13.5,6.8c6.1,0.5,13.5-1.7,16-13.8c4.6-22.1-32-24.8-36.7-13.5
			C303.7,224.6,309.6,233,314.1,237.9z"/>
	</g>
</g>
<text transform="matrix(1 0 0 1 528.4248 330.7332)" class="st3 st4 st5">COVID-19</text>
<text transform="matrix(1 0 0 1 549.9199 433.989)" class="st3 st4 st6">SITUAZIONE ITALIANA AGGIORNATA</text>
</svg>
