<?xml version="1.0" encoding="utf-8"?>
<!-- Generator: Adobe Illustrator 24.0.0, SVG Export Plug-In . SVG Version: 6.00 Build 0)  -->
<svg version="1.1" xmlns="http://www.w3.org/2000/svg" xmlns:xlink="http://www.w3.org/1999/xlink" x="0px" y="0px"
	 viewBox="0 0 1975.2 500" style="enable-background:new 0 0 1975.2 500;" xml:space="preserve">
<style type="text/css">
	.st0{fill:#0058BD;}
	.st1{fill:#248AFF;}
	.st2{fill:#56A5FF;}
	.st3{enable-background:new    ;}
	.st4{fill:#FFFFFF;}
</style>
<g id="Livello_2">
</g>
<g id="Livello_1">
	<g>
		<path class="st0" d="M207.1,96.1l26.1-88.2c2.2-7.5,12.8-7.5,15,0l26.5,88.2C274.7,96.1,238,117.2,207.1,96.1z"/>
		<g>
			<path class="st0" d="M402.8,224.3l90.7,15.4c7.7,1.3,9,11.8,1.8,14.9l-84.5,36.8C410.8,291.4,385.5,257.4,402.8,224.3z"/>
			<path class="st0" d="M115.1,175.7L74.5,93.1c-3.4-7,4.3-14.2,11-10.2l79.2,47C164.8,129.9,152.1,170.3,115.1,175.7z"/>
			<path class="st0" d="M277.3,402.9l-22,89.3c-1.9,7.6-12.4,8.1-15,0.7L209.8,406C209.8,406,245.5,383.3,277.3,402.9z"/>
			<path class="st0" d="M168,410l-82.5,40.7c-7,3.4-14.2-4.3-10.2-11l46.9-79.3C122.2,360.4,162.6,373.1,168,410z"/>
			<path class="st1" d="M395.9,321.8l57.2,72c4.9,6.1-1.2,14.8-8.6,12.3l-87.4-29C357.1,377.1,361,334.9,395.9,321.8z"/>
			<path class="st1" d="M422.5,256.5c0,77.4-49.1,143.3-117.9,168.3c-7.7,2.8-15.7,5.1-23.9,6.8c-12,2.5-24.4,3.9-37.2,3.9
				c-74.4,0-138.2-45.4-165.2-109.9c-0.7-1.6-1.4-3.3-2-4.9c-0.9-2.3-1.7-4.7-2.6-7.1c-0.7-2.1-1.3-4.1-2-6.2
				c-1.3-4.5-2.5-9.1-3.5-13.8c-1.6-7.4-2.7-15-3.3-22.7c-0.4-4.7-0.6-9.5-0.6-14.3c0-98.9,80.1-179,179-179
				c63.3,0,119,32.9,150.8,82.5c4.8,7.5,9.1,15.4,12.7,23.6C417,205.9,422.5,230.6,422.5,256.5z"/>
			<g>
				<path class="st1" d="M340.4,370.2l25.7,88.3c2.2,7.5-6.7,13.2-12.6,8.1l-69.9-60C283.5,406.7,303,369.2,340.4,370.2z"/>
				<path class="st0" d="M304.6,424.8c-7.7,2.8-15.7,5.1-23.9,6.8l2.8-24.9L304.6,424.8z"/>
			</g>
			<g>
				<path class="st0" d="M407,183.6l-27.7,16.8l14.9-40.4C399.1,167.5,403.4,175.4,407,183.6z"/>
				<path class="st1" d="M334.8,149.7l83.5-38.6c7.1-3.3,14.1,4.7,9.9,11.3l-48.9,78.1C379.4,200.5,339.3,186.8,334.8,149.7z"/>
			</g>
			<g>
				<path class="st0" d="M111.6,323.6l-33.3,2c-0.7-1.6-1.4-3.3-2-4.9c-0.9-2.3-2.1-5.6-2.9-8l-18.8-5c-0.8-3-1.3-5.1-1.9-8.1
					l19,7.8L111.6,323.6z"/>
				<path class="st1" d="M114.8,323.6l-37.8-10l-18.9-5l-32.2-8.5c-7.5-2-7.9-12.6-0.5-15l42.8-14.2l44.6-14.8
					C112.8,256.1,135,292.1,114.8,323.6z"/>
				<path class="st1" d="M73.3,220l-29.8-25.3l-14.9-12.6L3.2,160.5c-5.9-5-1.7-14.7,6.1-13.8l44.8,5.6l46.6,5.9
					C100.7,158.2,105.1,200.3,73.3,220z"/>
			</g>
			<circle class="st2" cx="241.5" cy="250.7" r="117.4"/>
			<path class="st1" d="M258.2,166.8c-5.9-15.8-27.4-20.2-48.4-16.2c-18.8,3.5-35.1,13.9-52,37.2c-28.7,39.9-28,114.9,21.5,134.1
				s58.9-33.6,28.1-58.4s-8.7-70.4,33.5-75.7C259.7,185.5,261.7,176.3,258.2,166.8z"/>
			<path class="st1" d="M275,216.9c-7.7-5-16.4-8.3-25.5-9.4c-12.8-1.5-28.4,1.1-31.4,21.2c-4.6,31,45.7,25.8,51.9,54.7
				c7.3,34,54.8,35.2,58,4.3C331.2,255,292.1,228,275,216.9z"/>
			<path class="st1" d="M279.5,314.7c-11.5-8.6-27.2-9.4-38.9-1.2c-6.9,4.9-12.3,12.7-10.1,25.1c5.1,29.3,57.2,9.5,58.8-7
				C289.9,324.6,285.2,319,279.5,314.7z"/>
			<path class="st1" d="M299.2,165.1c-6-2.8-12.8-3.4-19.1-1.4c-7.4,2.4-15,8.6-12,24c5.4,28.1,49.6,13.4,49.6-2.1
				C317.8,175.5,306.8,168.6,299.2,165.1z"/>
			<path class="st1" d="M314.1,237.9c3.5,3.9,8.3,6.4,13.5,6.8c6.1,0.5,13.5-1.7,16-13.8c4.6-22.1-32-24.8-36.7-13.5
				C303.7,224.6,309.6,233,314.1,237.9z"/>
		</g>
	</g>
	<g class="st3">
		<path class="st4" d="M720.8,246.2c-1.3,28.9-9.4,50.8-24.4,65.7c-15,14.9-36.1,22.3-63.4,22.3c-28.7,0-50.7-9.4-65.9-28.3
			c-15.3-18.9-22.9-45.8-22.9-80.8v-42.7c0-34.8,7.9-61.7,23.7-80.6c15.8-18.9,37.7-28.3,65.9-28.3c27.6,0,48.6,7.7,63,23.2
			c14.3,15.4,22.5,37.6,24.5,66.6h-51.4c-0.5-17.9-3.2-30.2-8.3-37s-14.3-10.2-27.8-10.2c-13.7,0-23.4,4.8-29.1,14.4
			c-5.7,9.6-8.7,25.4-9.1,47.3v47.9c0,25.2,2.8,42.5,8.5,51.9c5.6,9.4,15.3,14.1,29,14.1c13.5,0,22.8-3.3,27.9-9.8
			c5.1-6.6,8-18.4,8.7-35.6H720.8z"/>
		<path class="st4" d="M930.9,226.7c0,34-8,60.5-24.1,79.3c-16.1,18.8-38.4,28.2-67,28.2c-28.5,0-50.8-9.3-67.1-28
			c-16.3-18.6-24.5-44.7-24.7-78.3v-43.4c0-34.8,8.1-62.1,24.2-81.6c16.1-19.6,38.6-29.4,67.3-29.4c28.2,0,50.5,9.6,66.7,28.8
			c16.3,19.2,24.5,46.2,24.7,80.9V226.7z M879.5,184.2c0-22.9-3.3-39.9-9.8-51c-6.5-11.2-16.6-16.7-30.3-16.7
			c-13.6,0-23.6,5.4-30.1,16.1c-6.5,10.7-9.9,27.1-10.1,49v45.1c0,22.2,3.3,38.5,9.9,49c6.6,10.5,16.8,15.8,30.7,15.8
			c13.4,0,23.3-5.1,29.8-15.4c6.5-10.3,9.8-26.2,9.9-47.8V184.2z"/>
		<path class="st4" d="M1046.4,261l42.7-184h57.1l-73.2,253.7h-53.3L947.1,77.1h56.8L1046.4,261z"/>
		<path class="st4" d="M1223.6,330.7h-51.2V77.1h51.2V330.7z"/>
		<path class="st4" d="M1266.6,330.7V77.1h67.1c29.6,0,53.2,9.4,70.8,28.2c17.6,18.8,26.6,44.6,26.9,77.4v41.1
			c0,33.3-8.8,59.5-26.4,78.5c-17.6,19-41.8,28.5-72.7,28.5H1266.6z M1317.9,119.7v168.5h15.3c17.1,0,29.1-4.5,36.1-13.5
			c7-9,10.6-24.5,11-46.6V184c0-23.7-3.3-40.2-9.9-49.6c-6.6-9.3-17.9-14.3-33.8-14.7H1317.9z"/>
		<path class="st4" d="M1554.5,242.6h-85.2v-41.1h85.2V242.6z"/>
		<path class="st4" d="M1702.6,330.7h-49.5V137l-48.3,18.6v-41.1l92.5-37.8h5.2V330.7z"/>
		<path class="st4" d="M1870.2,232.6c-10.5,10.7-21.9,16-34.3,16c-19.3,0-34.5-7.8-45.6-23.3c-11.1-15.5-16.6-36.2-16.6-62.1
			c0-16.7,3.1-32,9.4-45.9c6.3-13.9,15-24.7,26.2-32.3c11.2-7.7,23.7-11.5,37.5-11.5c14.3,0,27,4.2,38.2,12.7
			c11.2,8.5,19.8,20.6,26,36.5c6.2,15.9,9.2,33.9,9.2,54.1v17.9c0,43.2-9.5,77-28.5,101.3c-19,24.3-45.9,36.7-80.8,37.2h-5.1v-42.5
			h3.3c19.3-0.1,33.8-5.1,43.5-15C1862.4,266,1868.2,251.6,1870.2,232.6z M1848.4,210c9.5,0,17-6.5,22.5-19.5v-22.6
			c0-16.6-2.3-29.6-6.8-39.1c-4.5-9.5-10.4-14.2-17.6-14.2c-7.1,0-12.8,4.7-17.2,14c-4.4,9.4-6.5,20.8-6.5,34.2
			c0,14.6,2.3,26.2,6.8,34.6C1834.1,205.8,1840.4,210,1848.4,210z"/>
	</g>
	<g class="st3">
		<path class="st4" d="M583.1,416.7c0-2.7-0.7-4.7-2.1-6.1c-1.4-1.4-3.9-2.8-7.5-4.3c-6.6-2.5-11.4-5.4-14.3-8.8s-4.3-7.3-4.3-11.9
			c0-5.6,2-10,5.9-13.4c3.9-3.4,8.9-5,15-5c4,0,7.7,0.9,10.8,2.6c3.2,1.7,5.6,4.1,7.3,7.2c1.7,3.1,2.6,6.6,2.6,10.6h-13.3
			c0-3.1-0.7-5.4-2-7c-1.3-1.6-3.2-2.4-5.7-2.4c-2.3,0-4.1,0.7-5.4,2.1c-1.3,1.4-1.9,3.2-1.9,5.5c0,1.8,0.7,3.4,2.2,4.9
			c1.4,1.5,4,3,7.7,4.6c6.4,2.3,11.1,5.2,14,8.6c2.9,3.4,4.4,7.7,4.4,12.9c0,5.7-1.8,10.2-5.5,13.4c-3.7,3.2-8.6,4.8-14.9,4.8
			c-4.3,0-8.1-0.9-11.6-2.6c-3.5-1.8-6.2-4.3-8.2-7.5c-2-3.3-3-7.1-3-11.5h13.4c0,3.8,0.7,6.6,2.2,8.3c1.5,1.7,3.9,2.6,7.2,2.6
			C580.7,424.1,583.1,421.6,583.1,416.7z"/>
		<path class="st4" d="M619.2,434h-13.3v-65.9h13.3V434z"/>
		<path class="st4" d="M671.8,379.2h-16.3V434h-13.4v-54.8h-16v-11.1h45.7V379.2z"/>
		<path class="st4" d="M722.3,368.1v45.6c-0.1,6.9-1.9,12.1-5.7,15.7c-3.7,3.6-9,5.5-16,5.5c-7.1,0-12.5-1.8-16.2-5.5
			c-3.7-3.7-5.6-9-5.6-16v-45.3h13.4v45.4c0,3.7,0.6,6.4,1.8,8c1.2,1.6,3.4,2.4,6.6,2.4c3.2,0,5.3-0.8,6.5-2.4s1.8-4.2,1.8-7.8
			v-45.6H722.3z"/>
		<path class="st4" d="M762.9,420.5h-18.2l-3.5,13.5h-14.1l20.6-65.9h12.2l20.7,65.9h-14.2L762.9,420.5z M747.6,409.4h12.3
			l-6.2-23.5L747.6,409.4z"/>
		<path class="st4" d="M800.6,422.9h27.2v11H785v-8l26.9-46.8h-27.2v-11.1h42.5v7.8L800.6,422.9z"/>
		<path class="st4" d="M849.9,434h-13.3v-65.9h13.3V434z"/>
		<path class="st4" d="M907.5,407c0,8.8-2.1,15.7-6.3,20.6c-4.2,4.9-10,7.3-17.4,7.3c-7.4,0-13.2-2.4-17.4-7.3
			c-4.2-4.8-6.4-11.6-6.4-20.4V396c0-9.1,2.1-16.1,6.3-21.2c4.2-5.1,10-7.6,17.5-7.6c7.3,0,13.1,2.5,17.3,7.5c4.2,5,6.4,12,6.4,21
			V407z M894.1,395.9c0-5.9-0.8-10.4-2.5-13.3c-1.7-2.9-4.3-4.3-7.9-4.3c-3.5,0-6.1,1.4-7.8,4.2c-1.7,2.8-2.6,7-2.6,12.7V407
			c0,5.8,0.9,10,2.6,12.7c1.7,2.7,4.4,4.1,8,4.1c3.5,0,6.1-1.3,7.7-4c1.7-2.7,2.5-6.8,2.6-12.4V395.9z"/>
		<path class="st4" d="M963.1,434h-13.3l-19.5-43.2V434H917v-65.9h13.3l19.5,43.3v-43.3h13.3V434z"/>
		<path class="st4" d="M1007.9,405.5h-20.7v17.5h24.5v11h-37.9v-65.9h37.8v11.1h-24.5v15.6h20.7V405.5z"/>
		<path class="st4" d="M1054.6,434h-13.3v-65.9h13.3V434z"/>
		<path class="st4" d="M1107.2,379.2h-16.3V434h-13.4v-54.8h-16v-11.1h45.7V379.2z"/>
		<path class="st4" d="M1140.9,420.5h-18.2l-3.5,13.5h-14.1l20.6-65.9h12.2l20.7,65.9h-14.2L1140.9,420.5z M1125.6,409.4h12.3
			l-6.2-23.5L1125.6,409.4z"/>
		<path class="st4" d="M1178.1,422.9h23.4v11h-36.7v-65.9h13.3V422.9z"/>
		<path class="st4" d="M1223,434h-13.3v-65.9h13.3V434z"/>
		<path class="st4" d="M1266.5,420.5h-18.2l-3.5,13.5h-14.1l20.6-65.9h12.2l20.7,65.9H1270L1266.5,420.5z M1251.3,409.4h12.3
			l-6.2-23.5L1251.3,409.4z"/>
		<path class="st4" d="M1336.5,434h-13.3l-19.5-43.2V434h-13.3v-65.9h13.3l19.5,43.3v-43.3h13.3V434z"/>
		<path class="st4" d="M1379.5,420.5h-18.2l-3.5,13.5h-14.1l20.6-65.9h12.2l20.7,65.9H1383L1379.5,420.5z M1364.2,409.4h12.3
			l-6.2-23.5L1364.2,409.4z"/>
		<path class="st4" d="M1456.2,420.5h-18.2l-3.5,13.5h-14.1l20.6-65.9h12.2L1474,434h-14.2L1456.2,420.5z M1441,409.4h12.3
			l-6.2-23.5L1441,409.4z"/>
		<path class="st4" d="M1524,426.5c-2.6,2.8-5.7,4.9-9.4,6.3c-3.7,1.4-7.8,2.1-12.2,2.1c-7.6,0-13.5-2.3-17.7-7
			c-4.2-4.7-6.4-11.5-6.5-20.5v-11.9c0-9.1,2-16.1,6-21c4-4.9,9.8-7.4,17.4-7.4c7.2,0,12.6,1.8,16.2,5.3c3.6,3.5,5.7,9.1,6.3,16.6
			h-13c-0.4-4.2-1.2-7.1-2.6-8.6c-1.4-1.5-3.6-2.3-6.5-2.3c-3.6,0-6.2,1.3-7.8,3.9c-1.6,2.6-2.5,6.8-2.5,12.5v12
			c0,6,0.9,10.4,2.7,13.1c1.8,2.7,4.7,4.1,8.9,4.1c2.6,0,4.8-0.5,6.4-1.6l1.2-0.8v-12.1h-9.3v-10.1h22.7V426.5z"/>
		<path class="st4" d="M1578.3,426.5c-2.6,2.8-5.7,4.9-9.4,6.3c-3.7,1.4-7.8,2.1-12.2,2.1c-7.6,0-13.5-2.3-17.7-7
			c-4.2-4.7-6.4-11.5-6.5-20.5v-11.9c0-9.1,2-16.1,6-21c4-4.9,9.8-7.4,17.4-7.4c7.2,0,12.6,1.8,16.2,5.3c3.6,3.5,5.7,9.1,6.3,16.6
			h-13c-0.4-4.2-1.2-7.1-2.6-8.6c-1.4-1.5-3.6-2.3-6.5-2.3c-3.6,0-6.2,1.3-7.8,3.9c-1.6,2.6-2.5,6.8-2.5,12.5v12
			c0,6,0.9,10.4,2.7,13.1c1.8,2.7,4.7,4.1,8.9,4.1c2.6,0,4.8-0.5,6.4-1.6l1.2-0.8v-12.1h-9.3v-10.1h22.7V426.5z"/>
		<path class="st4" d="M1601.6,434h-13.3v-65.9h13.3V434z"/>
		<path class="st4" d="M1659.2,407c0,8.8-2.1,15.7-6.3,20.6c-4.2,4.9-10,7.3-17.4,7.3c-7.4,0-13.2-2.4-17.4-7.3
			c-4.2-4.8-6.4-11.6-6.4-20.4V396c0-9.1,2.1-16.1,6.3-21.2c4.2-5.1,10-7.6,17.5-7.6c7.3,0,13.1,2.5,17.3,7.5c4.2,5,6.4,12,6.4,21
			V407z M1645.8,395.9c0-5.9-0.8-10.4-2.5-13.3c-1.7-2.9-4.3-4.3-7.9-4.3c-3.5,0-6.1,1.4-7.8,4.2c-1.7,2.8-2.6,7-2.6,12.7V407
			c0,5.8,0.9,10,2.6,12.7c1.7,2.7,4.4,4.1,8,4.1c3.5,0,6.1-1.3,7.7-4c1.7-2.7,2.5-6.8,2.6-12.4V395.9z"/>
		<path class="st4" d="M1688.7,409.9h-6.6V434h-13.3v-65.9h21.2c6.7,0,11.8,1.7,15.5,5.2c3.6,3.5,5.5,8.4,5.5,14.7
			c0,8.8-3.2,14.9-9.6,18.4l11.5,27v0.6h-14.3L1688.7,409.9z M1682.1,398.8h7.6c2.7,0,4.6-0.9,6-2.6c1.3-1.8,2-4.1,2-7.1
			c0-6.6-2.6-9.9-7.7-9.9h-7.8V398.8z"/>
		<path class="st4" d="M1766.2,434h-13.3l-19.5-43.2V434h-13.3v-65.9h13.3l19.5,43.3v-43.3h13.3V434z"/>
		<path class="st4" d="M1809.2,420.5H1791l-3.5,13.5h-14.1l20.6-65.9h12.2l20.7,65.9h-14.2L1809.2,420.5z M1793.9,409.4h12.3
			l-6.2-23.5L1793.9,409.4z"/>
		<path class="st4" d="M1870.4,379.2H1854V434h-13.4v-54.8h-16v-11.1h45.7V379.2z"/>
		<path class="st4" d="M1904,420.5h-18.2l-3.5,13.5h-14.1l20.6-65.9h12.2l20.7,65.9h-14.2L1904,420.5z M1888.8,409.4h12.3l-6.2-23.5
			L1888.8,409.4z"/>
	</g>
</g>
</svg>
